<svg display='none' xmlns="http://www.w3.org/2000/svg">
    <symbol id='phone' viewBox="0 0 56 62">
        <path d="M34 23V7.5M34 48.5C34 53.0441 34 56.8924 34 58C34 60.4 32 61 31 61C23 61 6.4 61 4 61C1.6 61 1 59 1 58C1 55.229 1 51.9905 1 48.5M34 48.5C34 43.1981 34 36.9489 34 33V48.5ZM34 48.5H1M1 48.5C1 34.0515 1 15.2862 1 7.5M1 48.5L1 7.5M1 7.5C1 5.62713 1 4.3895 1 4C1 1.6 3.66667 1 5 1C12.6667 1 28.6 1 31 1C33.4 1 34 3 34 4V7.5M1 7.5H34M13 4.5H18M20 4.5H23M56 28H16M16 28L30 15M16 28L30 41M17.5 58C18.5 58 20.5 57.4 20.5 55C20.5 52.6 18.5 52 17.5 52C16.5 52 14.5 52.6 14.5 55C14.5 57.4 16.5 58 17.5 58Z"/>
    </symbol>
    <symbol id='facebook' viewBox="0 0 155.139 155.139">
        <g>
            <path id="f_1_" d="M89.584,155.139V84.378h23.742l3.562-27.585H89.584V39.184
                c0-7.984,2.208-13.425,13.67-13.425l14.595-0.006V1.08C115.325,0.752,106.661,0,96.577,0C75.52,0,61.104,12.853,61.104,36.452
                v20.341H37.29v27.585h23.814v70.761H89.584z"/>
        </g>
    </symbol>
    <symbol id='twitter' viewBox="0 0 512 512">
        <g>
            <g>
                <path d="M512,97.248c-19.04,8.352-39.328,13.888-60.48,16.576c21.76-12.992,38.368-33.408,46.176-58.016
                    c-20.288,12.096-42.688,20.64-66.56,25.408C411.872,60.704,384.416,48,354.464,48c-58.112,0-104.896,47.168-104.896,104.992
                    c0,8.32,0.704,16.32,2.432,23.936c-87.264-4.256-164.48-46.08-216.352-109.792c-9.056,15.712-14.368,33.696-14.368,53.056
                    c0,36.352,18.72,68.576,46.624,87.232c-16.864-0.32-33.408-5.216-47.424-12.928c0,0.32,0,0.736,0,1.152
                    c0,51.008,36.384,93.376,84.096,103.136c-8.544,2.336-17.856,3.456-27.52,3.456c-6.72,0-13.504-0.384-19.872-1.792
                    c13.6,41.568,52.192,72.128,98.08,73.12c-35.712,27.936-81.056,44.768-130.144,44.768c-8.608,0-16.864-0.384-25.12-1.44
                    C46.496,446.88,101.6,464,161.024,464c193.152,0,298.752-160,298.752-298.688c0-4.64-0.16-9.12-0.384-13.568
                    C480.224,136.96,497.728,118.496,512,97.248z"/>
            </g>
        </g>
    </symbol>
    <symbol id='message' viewBox="0 0 511.999 511.999">
        <g>
            <g>
                <path d="M113.304,396.177c-41.405-40.668-66.722-93.368-72.6-150.216c-22.006,27.818-33.938,61.937-33.883,97.745
                    c0.037,23.29,5.279,46.441,15.212,67.376L1.551,470.689c-3.521,10.247-0.949,21.373,6.713,29.036
                    c5.392,5.392,12.501,8.264,19.812,8.264c3.076,0,6.188-0.508,9.223-1.551l59.609-20.483c20.935,9.933,44.086,15.175,67.376,15.212
                    c36.509,0.049,71.256-12.338,99.361-35.168C207.133,460.886,154.416,436.556,113.304,396.177z"/>
            </g>
        </g>
        <g>
            <g>
                <path d="M510.156,401.842L480.419,315.3c14.334-29.302,21.909-61.89,21.96-94.679c0.088-57.013-21.97-110.92-62.112-151.79
                    C400.117,27.952,346.615,4.942,289.615,4.039C230.51,3.104,174.954,25.586,133.187,67.352
                    C91.42,109.119,68.934,164.674,69.87,223.782c0.903,56.999,23.913,110.502,64.79,150.652
                    c40.79,40.064,94.56,62.116,151.451,62.114c0.112,0,0.23,0,0.34,0c32.79-0.051,65.378-7.626,94.68-21.96l86.544,29.738
                    c3.606,1.239,7.304,1.843,10.959,1.843c8.688,0,17.136-3.412,23.545-9.822C511.284,427.241,514.34,414.021,510.156,401.842z
                    M307.004,295.328H195.331c-8.416,0-15.238-6.823-15.238-15.238c0-8.416,6.823-15.238,15.238-15.238h111.672
                    c8.416,0,15.238,6.823,15.238,15.238C322.241,288.506,315.42,295.328,307.004,295.328z M376.892,232.659h-181.56
                    c-8.416,0-15.238-6.823-15.238-15.238s6.823-15.238,15.238-15.238h181.56c8.416,0,15.238,6.823,15.238,15.238
                    S385.308,232.659,376.892,232.659z M376.892,169.988h-181.56c-8.416,0-15.238-6.823-15.238-15.238
                    c0-8.416,6.823-15.238,15.238-15.238h181.56c8.416,0,15.238,6.823,15.238,15.238C392.13,163.165,385.308,169.988,376.892,169.988z
                    "/>
            </g>
        </g>
    </symbol>
    <symbol id='ball' viewBox="0 0 488.839 488.839">
        <g>
            <g id="_x31_4_26_">
                <g>
                    <path d="M264.32,39.487c5.529-7.328,4.64-22.871,3.853-36.582c-0.03-0.591-0.063-1.169-0.096-1.756
                        C260.327,0.409,252.482,0,244.542,0c-30.425,0-59.537,5.605-86.406,15.766c19.167,9.211,48.836,25.065,81.814,48.49
                        C251.202,54.573,259.688,45.634,264.32,39.487z"/>
                    <path d="M388.163,178.955c-12.047,1.361-22.207,3.338-30.896,6.111c41.537,72.522,57.732,164.145,61.695,230.522
                        c41.15-41.928,67.283-98.609,69.754-161.393C460.362,219.343,422.8,175.026,388.163,178.955z"/>
                    <path d="M141.232,116.356c29.185-6.073,56.604-20.762,78.466-36.267c-45.608-31.412-83.648-47.714-91.215-50.817
                        C81.166,54.851,43.302,95.606,21.274,144.987c28.632-11.408,59.641-17.212,90.098-22.867
                        C121.225,120.29,131.41,118.399,141.232,116.356z"/>
                    <path d="M310.171,123.463c2.605,2.618,5.203,5.281,7.783,7.994c9.521,9.995,18.16,20.927,26.082,32.493
                        c11.537-4.356,25.119-7.445,41.377-9.283c38.307-4.333,72.369,26.012,101.604,59.42c-6.268-50.645-27.989-96.482-60.354-132.631
                        c-17.666,2.129-37.361,5.736-57.435,11.726C356.06,97.115,335.089,107.801,310.171,123.463z"/>
                    <path d="M278.011,249.688c10.025-33.955,21.637-58.432,44.135-74.32c-6.752-9.693-14.018-18.79-21.889-27.054
                        c-3.641-3.824-7.323-7.517-11.021-11.145c-90.263,61.439-213.906,174.3-225.149,272.086
                        c37.53,41.062,88.892,69.222,146.712,77.211c21.053-41.915,40.868-127.124,52.646-177.801
                        C269.104,284.324,273.988,263.307,278.011,249.688z"/>
                    <path d="M175.668,195.843c31.472-29.001,64.708-55.007,95.107-75.908c-10.133-8.965-20.297-17.229-30.275-24.808
                        c-25.249,18.98-58.307,37.674-94.291,45.158c-10.077,2.097-20.396,4.014-30.372,5.866
                        c-38.438,7.138-75.336,14.051-106.366,31.364c-6.043,21.271-9.348,43.697-9.348,66.905c0,51.917,16.238,100.02,43.839,139.604
                        C61.843,313.227,123.175,244.214,175.668,195.843z"/>
                    <path d="M291.829,105.975c29.078-18.538,54.147-31.356,70.412-36.211c14.606-4.362,28.934-7.539,42.502-9.856
                        c-31.353-27.245-69.678-46.663-111.986-55.127c0.938,17.07,1.347,35.811-8.922,49.427c-4.879,6.466-13.133,15.334-23.873,24.955
                        C270.48,87.35,281.169,96.278,291.829,105.975z"/>
                    <path d="M301.45,256.609c-3.816,12.928-8.63,33.625-14.199,57.588c-16.444,70.755-32.179,134.067-50.555,174.442
                        c2.609,0.083,5.217,0.199,7.846,0.199c56.963,0,109.328-19.539,150.885-52.206c-1.641-69.461-18.293-167.71-60.238-240.643
                        C318.921,208.08,310.165,227.101,301.45,256.609z"/>
                </g>
            </g>
        </g>
    </symbol>
</svg>