<svg width="240" height="168" fill="none" xmlns="http://www.w3.org/2000/svg"><g opacity=".4" fill="#fff"><circle cx="2.093" cy="165.349" r="2.093" transform="rotate(-90 2.093 165.349)"/><circle cx="20.233" cy="165.349" r="2.093" transform="rotate(-90 20.233 165.349)"/><circle cx="38.372" cy="165.349" r="2.093" transform="rotate(-90 38.372 165.349)"/><circle cx="56.512" cy="165.349" r="2.093" transform="rotate(-90 56.512 165.349)"/><circle cx="74.651" cy="165.349" r="2.093" transform="rotate(-90 74.651 165.349)"/><circle cx="92.791" cy="165.349" r="2.093" transform="rotate(-90 92.79 165.349)"/><circle cx="110.93" cy="165.349" r="2.093" transform="rotate(-90 110.93 165.349)"/><circle cx="129.07" cy="165.349" r="2.093" transform="rotate(-90 129.07 165.349)"/><circle cx="147.209" cy="165.349" r="2.093" transform="rotate(-90 147.209 165.349)"/><circle cx="165.349" cy="165.349" r="2.093" transform="rotate(-90 165.349 165.349)"/><circle cx="183.488" cy="165.349" r="2.093" transform="rotate(-90 183.488 165.349)"/><circle cx="201.628" cy="165.349" r="2.093" transform="rotate(-90 201.628 165.349)"/><circle cx="219.767" cy="165.349" r="2.093" transform="rotate(-90 219.767 165.349)"/><circle cx="237.907" cy="165.349" r="2.093" transform="rotate(-90 237.907 165.349)"/><circle cx="2.093" cy="147.209" r="2.093" transform="rotate(-90 2.093 147.209)"/><circle cx="20.233" cy="147.209" r="2.093" transform="rotate(-90 20.233 147.209)"/><circle cx="38.372" cy="147.209" r="2.093" transform="rotate(-90 38.372 147.209)"/><circle cx="56.512" cy="147.209" r="2.093" transform="rotate(-90 56.512 147.209)"/><circle cx="74.651" cy="147.209" r="2.093" transform="rotate(-90 74.651 147.209)"/><circle cx="92.791" cy="147.209" r="2.093" transform="rotate(-90 92.79 147.209)"/><circle cx="110.93" cy="147.209" r="2.093" transform="rotate(-90 110.93 147.209)"/><circle cx="129.07" cy="147.209" r="2.093" transform="rotate(-90 129.07 147.209)"/><circle cx="147.209" cy="147.209" r="2.093" transform="rotate(-90 147.209 147.209)"/><circle cx="165.349" cy="147.209" r="2.093" transform="rotate(-90 165.349 147.209)"/><circle cx="183.488" cy="147.209" r="2.093" transform="rotate(-90 183.488 147.209)"/><circle cx="201.628" cy="147.209" r="2.093" transform="rotate(-90 201.628 147.209)"/><circle cx="219.767" cy="147.209" r="2.093" transform="rotate(-90 219.767 147.209)"/><circle cx="237.907" cy="147.209" r="2.093" transform="rotate(-90 237.907 147.209)"/><circle cx="2.093" cy="129.07" r="2.093" transform="rotate(-90 2.093 129.07)"/><circle cx="20.233" cy="129.07" r="2.093" transform="rotate(-90 20.233 129.07)"/><circle cx="38.372" cy="129.07" r="2.093" transform="rotate(-90 38.372 129.07)"/><circle cx="56.512" cy="129.07" r="2.093" transform="rotate(-90 56.512 129.07)"/><circle cx="74.651" cy="129.07" r="2.093" transform="rotate(-90 74.651 129.07)"/><circle cx="92.791" cy="129.07" r="2.093" transform="rotate(-90 92.79 129.07)"/><circle cx="110.93" cy="129.07" r="2.093" transform="rotate(-90 110.93 129.07)"/><circle cx="129.07" cy="129.07" r="2.093" transform="rotate(-90 129.07 129.07)"/><circle cx="147.209" cy="129.07" r="2.093" transform="rotate(-90 147.209 129.07)"/><circle cx="165.349" cy="129.07" r="2.093" transform="rotate(-90 165.349 129.07)"/><circle cx="183.488" cy="129.07" r="2.093" transform="rotate(-90 183.488 129.07)"/><circle cx="201.628" cy="129.07" r="2.093" transform="rotate(-90 201.628 129.07)"/><circle cx="219.767" cy="129.07" r="2.093" transform="rotate(-90 219.767 129.07)"/><circle cx="237.907" cy="129.07" r="2.093" transform="rotate(-90 237.907 129.07)"/><circle cx="2.093" cy="110.93" r="2.093" transform="rotate(-90 2.093 110.93)"/><circle cx="20.233" cy="110.93" r="2.093" transform="rotate(-90 20.233 110.93)"/><circle cx="38.372" cy="110.93" r="2.093" transform="rotate(-90 38.372 110.93)"/><circle cx="56.512" cy="110.93" r="2.093" transform="rotate(-90 56.512 110.93)"/><circle cx="74.651" cy="110.93" r="2.093" transform="rotate(-90 74.651 110.93)"/><circle cx="92.791" cy="110.93" r="2.093" transform="rotate(-90 92.79 110.93)"/><circle cx="110.93" cy="110.93" r="2.093" transform="rotate(-90 110.93 110.93)"/><circle cx="129.07" cy="110.93" r="2.093" transform="rotate(-90 129.07 110.93)"/><circle cx="147.209" cy="110.93" r="2.093" transform="rotate(-90 147.209 110.93)"/><circle cx="165.349" cy="110.93" r="2.093" transform="rotate(-90 165.349 110.93)"/><circle cx="183.488" cy="110.93" r="2.093" transform="rotate(-90 183.488 110.93)"/><circle cx="201.628" cy="110.93" r="2.093" transform="rotate(-90 201.628 110.93)"/><circle cx="219.767" cy="110.93" r="2.093" transform="rotate(-90 219.767 110.93)"/><circle cx="237.907" cy="110.93" r="2.093" transform="rotate(-90 237.907 110.93)"/><circle cx="2.093" cy="92.791" r="2.093" transform="rotate(-90 2.093 92.79)"/><circle cx="20.233" cy="92.791" r="2.093" transform="rotate(-90 20.233 92.79)"/><circle cx="38.372" cy="92.791" r="2.093" transform="rotate(-90 38.372 92.79)"/><circle cx="56.512" cy="92.791" r="2.093" transform="rotate(-90 56.512 92.79)"/><circle cx="74.651" cy="92.791" r="2.093" transform="rotate(-90 74.651 92.79)"/><circle cx="92.791" cy="92.791" r="2.093" transform="rotate(-90 92.79 92.79)"/><circle cx="110.93" cy="92.791" r="2.093" transform="rotate(-90 110.93 92.79)"/><circle cx="129.07" cy="92.791" r="2.093" transform="rotate(-90 129.07 92.79)"/><circle cx="147.209" cy="92.791" r="2.093" transform="rotate(-90 147.209 92.79)"/><circle cx="165.349" cy="92.791" r="2.093" transform="rotate(-90 165.349 92.79)"/><circle cx="183.488" cy="92.791" r="2.093" transform="rotate(-90 183.488 92.79)"/><circle cx="201.628" cy="92.791" r="2.093" transform="rotate(-90 201.628 92.79)"/><circle cx="219.767" cy="92.791" r="2.093" transform="rotate(-90 219.767 92.79)"/><circle cx="237.907" cy="92.791" r="2.093" transform="rotate(-90 237.907 92.79)"/><circle cx="2.093" cy="74.651" r="2.093" transform="rotate(-90 2.093 74.651)"/><circle cx="20.233" cy="74.651" r="2.093" transform="rotate(-90 20.233 74.651)"/><circle cx="38.372" cy="74.651" r="2.093" transform="rotate(-90 38.372 74.651)"/><circle cx="56.512" cy="74.651" r="2.093" transform="rotate(-90 56.512 74.651)"/><circle cx="74.651" cy="74.651" r="2.093" transform="rotate(-90 74.651 74.651)"/><circle cx="92.791" cy="74.651" r="2.093" transform="rotate(-90 92.79 74.651)"/><circle cx="110.93" cy="74.651" r="2.093" transform="rotate(-90 110.93 74.651)"/><circle cx="129.07" cy="74.651" r="2.093" transform="rotate(-90 129.07 74.651)"/><circle cx="147.209" cy="74.651" r="2.093" transform="rotate(-90 147.209 74.651)"/><circle cx="165.349" cy="74.651" r="2.093" transform="rotate(-90 165.349 74.651)"/><circle cx="183.488" cy="74.651" r="2.093" transform="rotate(-90 183.488 74.651)"/><circle cx="201.628" cy="74.651" r="2.093" transform="rotate(-90 201.628 74.651)"/><circle cx="219.767" cy="74.651" r="2.093" transform="rotate(-90 219.767 74.651)"/><circle cx="237.907" cy="74.651" r="2.093" transform="rotate(-90 237.907 74.651)"/><circle cx="2.093" cy="56.512" r="2.093" transform="rotate(-90 2.093 56.512)"/><circle cx="20.233" cy="56.512" r="2.093" transform="rotate(-90 20.233 56.512)"/><circle cx="38.372" cy="56.512" r="2.093" transform="rotate(-90 38.372 56.512)"/><circle cx="56.512" cy="56.512" r="2.093" transform="rotate(-90 56.512 56.512)"/><circle cx="74.651" cy="56.512" r="2.093" transform="rotate(-90 74.651 56.512)"/><circle cx="92.791" cy="56.512" r="2.093" transform="rotate(-90 92.79 56.512)"/><circle cx="110.93" cy="56.512" r="2.093" transform="rotate(-90 110.93 56.512)"/><circle cx="129.07" cy="56.512" r="2.093" transform="rotate(-90 129.07 56.512)"/><circle cx="147.209" cy="56.512" r="2.093" transform="rotate(-90 147.209 56.512)"/><circle cx="165.349" cy="56.512" r="2.093" transform="rotate(-90 165.349 56.512)"/><circle cx="183.488" cy="56.512" r="2.093" transform="rotate(-90 183.488 56.512)"/><circle cx="201.628" cy="56.512" r="2.093" transform="rotate(-90 201.628 56.512)"/><circle cx="219.767" cy="56.512" r="2.093" transform="rotate(-90 219.767 56.512)"/><circle cx="237.907" cy="56.512" r="2.093" transform="rotate(-90 237.907 56.512)"/><circle cx="2.093" cy="38.372" r="2.093" transform="rotate(-90 2.093 38.372)"/><circle cx="20.233" cy="38.372" r="2.093" transform="rotate(-90 20.233 38.372)"/><circle cx="38.372" cy="38.372" r="2.093" transform="rotate(-90 38.372 38.372)"/><circle cx="56.512" cy="38.372" r="2.093" transform="rotate(-90 56.512 38.372)"/><circle cx="74.651" cy="38.372" r="2.093" transform="rotate(-90 74.651 38.372)"/><circle cx="92.791" cy="38.372" r="2.093" transform="rotate(-90 92.79 38.372)"/><circle cx="110.93" cy="38.372" r="2.093" transform="rotate(-90 110.93 38.372)"/><circle cx="129.07" cy="38.372" r="2.093" transform="rotate(-90 129.07 38.372)"/><circle cx="147.209" cy="38.372" r="2.093" transform="rotate(-90 147.209 38.372)"/><circle cx="165.349" cy="38.372" r="2.093" transform="rotate(-90 165.349 38.372)"/><circle cx="183.488" cy="38.372" r="2.093" transform="rotate(-90 183.488 38.372)"/><circle cx="201.628" cy="38.372" r="2.093" transform="rotate(-90 201.628 38.372)"/><circle cx="219.767" cy="38.372" r="2.093" transform="rotate(-90 219.767 38.372)"/><circle cx="237.907" cy="38.372" r="2.093" transform="rotate(-90 237.907 38.372)"/><circle cx="2.093" cy="20.233" r="2.093" transform="rotate(-90 2.093 20.233)"/><circle cx="20.233" cy="20.233" r="2.093" transform="rotate(-90 20.233 20.233)"/><circle cx="38.372" cy="20.233" r="2.093" transform="rotate(-90 38.372 20.233)"/><circle cx="56.512" cy="20.233" r="2.093" transform="rotate(-90 56.512 20.233)"/><circle cx="74.651" cy="20.233" r="2.093" transform="rotate(-90 74.651 20.233)"/><circle cx="92.791" cy="20.233" r="2.093" transform="rotate(-90 92.79 20.233)"/><circle cx="110.93" cy="20.233" r="2.093" transform="rotate(-90 110.93 20.233)"/><circle cx="129.07" cy="20.233" r="2.093" transform="rotate(-90 129.07 20.233)"/><circle cx="147.209" cy="20.233" r="2.093" transform="rotate(-90 147.209 20.233)"/><circle cx="165.349" cy="20.233" r="2.093" transform="rotate(-90 165.349 20.233)"/><circle cx="183.488" cy="20.233" r="2.093" transform="rotate(-90 183.488 20.233)"/><circle cx="201.628" cy="20.233" r="2.093" transform="rotate(-90 201.628 20.233)"/><circle cx="219.767" cy="20.233" r="2.093" transform="rotate(-90 219.767 20.233)"/><circle cx="237.907" cy="20.233" r="2.093" transform="rotate(-90 237.907 20.233)"/><circle cx="2.093" cy="2.093" r="2.093" transform="rotate(-90 2.093 2.093)"/><circle cx="20.233" cy="2.093" r="2.093" transform="rotate(-90 20.233 2.093)"/><circle cx="38.372" cy="2.093" r="2.093" transform="rotate(-90 38.372 2.093)"/><circle cx="56.512" cy="2.093" r="2.093" transform="rotate(-90 56.512 2.093)"/><circle cx="74.651" cy="2.093" r="2.093" transform="rotate(-90 74.651 2.093)"/><circle cx="92.791" cy="2.093" r="2.093" transform="rotate(-90 92.79 2.093)"/><circle cx="110.93" cy="2.093" r="2.093" transform="rotate(-90 110.93 2.093)"/><circle cx="129.07" cy="2.093" r="2.093" transform="rotate(-90 129.07 2.093)"/><circle cx="147.209" cy="2.093" r="2.093" transform="rotate(-90 147.209 2.093)"/><circle cx="165.349" cy="2.093" r="2.093" transform="rotate(-90 165.349 2.093)"/><circle cx="183.488" cy="2.093" r="2.093" transform="rotate(-90 183.488 2.093)"/><circle cx="201.628" cy="2.093" r="2.093" transform="rotate(-90 201.628 2.093)"/><circle cx="219.767" cy="2.093" r="2.093" transform="rotate(-90 219.767 2.093)"/><circle cx="237.907" cy="2.093" r="2.093" transform="rotate(-90 237.907 2.093)"/></g></svg>