<svg width="240" height="348" fill="none" xmlns="http://www.w3.org/2000/svg"><g opacity=".4" fill="#262B35"><circle opacity=".4" cx="2.093" cy="165.906" r="2.093" transform="rotate(-90 2.093 165.906)"/><circle opacity=".4" cx="20.232" cy="165.906" r="2.093" transform="rotate(-90 20.232 165.906)"/><circle opacity=".4" cx="38.372" cy="165.906" r="2.093" transform="rotate(-90 38.372 165.906)"/><circle opacity=".4" cx="56.511" cy="165.906" r="2.093" transform="rotate(-90 56.511 165.906)"/><circle opacity=".4" cx="74.651" cy="165.906" r="2.093" transform="rotate(-90 74.65 165.906)"/><circle opacity=".4" cx="92.79" cy="165.906" r="2.093" transform="rotate(-90 92.79 165.906)"/><circle opacity=".4" cx="110.93" cy="165.906" r="2.093" transform="rotate(-90 110.93 165.906)"/><circle opacity=".4" cx="129.07" cy="165.906" r="2.093" transform="rotate(-90 129.07 165.906)"/><circle opacity=".4" cx="147.209" cy="165.906" r="2.093" transform="rotate(-90 147.209 165.906)"/><circle opacity=".4" cx="165.349" cy="165.906" r="2.093" transform="rotate(-90 165.349 165.906)"/><circle opacity=".4" cx="183.488" cy="165.906" r="2.093" transform="rotate(-90 183.488 165.906)"/><circle opacity=".4" cx="201.628" cy="165.906" r="2.093" transform="rotate(-90 201.628 165.906)"/><circle opacity=".4" cx="219.767" cy="165.906" r="2.093" transform="rotate(-90 219.767 165.906)"/><circle opacity=".4" cx="237.907" cy="165.906" r="2.093" transform="rotate(-90 237.907 165.906)"/><circle opacity=".4" cx="2.093" cy="147.767" r="2.093" transform="rotate(-90 2.093 147.767)"/><circle opacity=".4" cx="20.232" cy="147.767" r="2.093" transform="rotate(-90 20.232 147.767)"/><circle opacity=".4" cx="38.372" cy="147.767" r="2.093" transform="rotate(-90 38.372 147.767)"/><circle opacity=".4" cx="56.511" cy="147.767" r="2.093" transform="rotate(-90 56.511 147.767)"/><circle opacity=".4" cx="74.651" cy="147.767" r="2.093" transform="rotate(-90 74.65 147.767)"/><circle opacity=".4" cx="92.79" cy="147.767" r="2.093" transform="rotate(-90 92.79 147.767)"/><circle opacity=".4" cx="110.93" cy="147.767" r="2.093" transform="rotate(-90 110.93 147.767)"/><circle opacity=".4" cx="129.07" cy="147.767" r="2.093" transform="rotate(-90 129.07 147.767)"/><circle opacity=".4" cx="147.209" cy="147.767" r="2.093" transform="rotate(-90 147.209 147.767)"/><circle opacity=".4" cx="165.349" cy="147.767" r="2.093" transform="rotate(-90 165.349 147.767)"/><circle opacity=".4" cx="183.488" cy="147.767" r="2.093" transform="rotate(-90 183.488 147.767)"/><circle opacity=".4" cx="201.628" cy="147.767" r="2.093" transform="rotate(-90 201.628 147.767)"/><circle opacity=".4" cx="219.767" cy="147.767" r="2.093" transform="rotate(-90 219.767 147.767)"/><circle opacity=".4" cx="237.907" cy="147.767" r="2.093" transform="rotate(-90 237.907 147.767)"/><circle opacity=".4" cx="2.093" cy="129.628" r="2.093" transform="rotate(-90 2.093 129.628)"/><circle opacity=".4" cx="20.232" cy="129.628" r="2.093" transform="rotate(-90 20.232 129.628)"/><circle opacity=".4" cx="38.372" cy="129.628" r="2.093" transform="rotate(-90 38.372 129.628)"/><circle opacity=".4" cx="56.511" cy="129.628" r="2.093" transform="rotate(-90 56.511 129.628)"/><circle opacity=".4" cx="74.651" cy="129.628" r="2.093" transform="rotate(-90 74.65 129.628)"/><circle opacity=".4" cx="92.79" cy="129.628" r="2.093" transform="rotate(-90 92.79 129.628)"/><circle opacity=".4" cx="110.93" cy="129.628" r="2.093" transform="rotate(-90 110.93 129.628)"/><circle opacity=".4" cx="129.07" cy="129.628" r="2.093" transform="rotate(-90 129.07 129.628)"/><circle opacity=".4" cx="147.209" cy="129.628" r="2.093" transform="rotate(-90 147.209 129.628)"/><circle opacity=".4" cx="165.349" cy="129.628" r="2.093" transform="rotate(-90 165.349 129.628)"/><circle opacity=".4" cx="183.488" cy="129.628" r="2.093" transform="rotate(-90 183.488 129.628)"/><circle opacity=".4" cx="201.628" cy="129.628" r="2.093" transform="rotate(-90 201.628 129.628)"/><circle opacity=".4" cx="219.767" cy="129.628" r="2.093" transform="rotate(-90 219.767 129.628)"/><circle opacity=".4" cx="237.907" cy="129.628" r="2.093" transform="rotate(-90 237.907 129.628)"/><circle opacity=".4" cx="2.093" cy="111.488" r="2.093" transform="rotate(-90 2.093 111.488)"/><circle opacity=".4" cx="20.232" cy="111.488" r="2.093" transform="rotate(-90 20.232 111.488)"/><circle opacity=".4" cx="38.372" cy="111.488" r="2.093" transform="rotate(-90 38.372 111.488)"/><circle opacity=".4" cx="56.511" cy="111.488" r="2.093" transform="rotate(-90 56.511 111.488)"/><circle opacity=".4" cx="74.651" cy="111.488" r="2.093" transform="rotate(-90 74.65 111.488)"/><circle opacity=".4" cx="92.79" cy="111.488" r="2.093" transform="rotate(-90 92.79 111.488)"/><circle opacity=".4" cx="110.93" cy="111.488" r="2.093" transform="rotate(-90 110.93 111.488)"/><circle opacity=".4" cx="129.07" cy="111.488" r="2.093" transform="rotate(-90 129.07 111.488)"/><circle opacity=".4" cx="147.209" cy="111.488" r="2.093" transform="rotate(-90 147.209 111.488)"/><circle opacity=".4" cx="165.349" cy="111.488" r="2.093" transform="rotate(-90 165.349 111.488)"/><circle opacity=".4" cx="183.488" cy="111.488" r="2.093" transform="rotate(-90 183.488 111.488)"/><circle opacity=".4" cx="201.628" cy="111.488" r="2.093" transform="rotate(-90 201.628 111.488)"/><circle opacity=".4" cx="219.767" cy="111.488" r="2.093" transform="rotate(-90 219.767 111.488)"/><circle opacity=".4" cx="237.907" cy="111.488" r="2.093" transform="rotate(-90 237.907 111.488)"/><circle opacity=".4" cx="2.093" cy="93.348" r="2.093" transform="rotate(-90 2.093 93.348)"/><circle opacity=".4" cx="20.232" cy="93.348" r="2.093" transform="rotate(-90 20.232 93.348)"/><circle opacity=".4" cx="38.372" cy="93.348" r="2.093" transform="rotate(-90 38.372 93.348)"/><circle opacity=".4" cx="56.511" cy="93.348" r="2.093" transform="rotate(-90 56.511 93.348)"/><circle opacity=".4" cx="74.651" cy="93.348" r="2.093" transform="rotate(-90 74.65 93.348)"/><circle opacity=".4" cx="92.79" cy="93.348" r="2.093" transform="rotate(-90 92.79 93.348)"/><circle opacity=".4" cx="110.93" cy="93.348" r="2.093" transform="rotate(-90 110.93 93.348)"/><circle opacity=".4" cx="129.07" cy="93.348" r="2.093" transform="rotate(-90 129.07 93.348)"/><circle opacity=".4" cx="147.209" cy="93.348" r="2.093" transform="rotate(-90 147.209 93.348)"/><circle opacity=".4" cx="165.349" cy="93.348" r="2.093" transform="rotate(-90 165.349 93.348)"/><circle opacity=".4" cx="183.488" cy="93.348" r="2.093" transform="rotate(-90 183.488 93.348)"/><circle opacity=".4" cx="201.628" cy="93.348" r="2.093" transform="rotate(-90 201.628 93.348)"/><circle opacity=".4" cx="219.767" cy="93.348" r="2.093" transform="rotate(-90 219.767 93.348)"/><circle opacity=".4" cx="237.907" cy="93.348" r="2.093" transform="rotate(-90 237.907 93.348)"/><circle opacity=".4" cx="2.093" cy="75.209" r="2.093" transform="rotate(-90 2.093 75.209)"/><circle opacity=".4" cx="20.232" cy="75.209" r="2.093" transform="rotate(-90 20.232 75.209)"/><circle opacity=".4" cx="38.372" cy="75.209" r="2.093" transform="rotate(-90 38.372 75.209)"/><circle opacity=".4" cx="56.511" cy="75.209" r="2.093" transform="rotate(-90 56.511 75.209)"/><circle opacity=".4" cx="74.651" cy="75.209" r="2.093" transform="rotate(-90 74.65 75.209)"/><circle opacity=".4" cx="92.79" cy="75.209" r="2.093" transform="rotate(-90 92.79 75.209)"/><circle opacity=".4" cx="110.93" cy="75.209" r="2.093" transform="rotate(-90 110.93 75.209)"/><circle opacity=".4" cx="129.07" cy="75.209" r="2.093" transform="rotate(-90 129.07 75.209)"/><circle opacity=".4" cx="147.209" cy="75.209" r="2.093" transform="rotate(-90 147.209 75.209)"/><circle opacity=".4" cx="165.349" cy="75.209" r="2.093" transform="rotate(-90 165.349 75.209)"/><circle opacity=".4" cx="183.488" cy="75.209" r="2.093" transform="rotate(-90 183.488 75.209)"/><circle opacity=".4" cx="201.628" cy="75.209" r="2.093" transform="rotate(-90 201.628 75.209)"/><circle opacity=".4" cx="219.767" cy="75.209" r="2.093" transform="rotate(-90 219.767 75.209)"/><circle opacity=".4" cx="237.907" cy="75.209" r="2.093" transform="rotate(-90 237.907 75.209)"/><circle opacity=".4" cx="2.093" cy="57.07" r="2.093" transform="rotate(-90 2.093 57.07)"/><circle opacity=".4" cx="20.232" cy="57.07" r="2.093" transform="rotate(-90 20.232 57.07)"/><circle opacity=".4" cx="38.372" cy="57.07" r="2.093" transform="rotate(-90 38.372 57.07)"/><circle opacity=".4" cx="56.511" cy="57.07" r="2.093" transform="rotate(-90 56.511 57.07)"/><circle opacity=".4" cx="74.651" cy="57.07" r="2.093" transform="rotate(-90 74.65 57.07)"/><circle opacity=".4" cx="92.79" cy="57.07" r="2.093" transform="rotate(-90 92.79 57.07)"/><circle opacity=".4" cx="110.93" cy="57.07" r="2.093" transform="rotate(-90 110.93 57.07)"/><circle opacity=".4" cx="129.07" cy="57.07" r="2.093" transform="rotate(-90 129.07 57.07)"/><circle opacity=".4" cx="147.209" cy="57.07" r="2.093" transform="rotate(-90 147.209 57.07)"/><circle opacity=".4" cx="165.349" cy="57.07" r="2.093" transform="rotate(-90 165.349 57.07)"/><circle opacity=".4" cx="183.488" cy="57.07" r="2.093" transform="rotate(-90 183.488 57.07)"/><circle opacity=".4" cx="201.628" cy="57.07" r="2.093" transform="rotate(-90 201.628 57.07)"/><circle opacity=".4" cx="219.767" cy="57.07" r="2.093" transform="rotate(-90 219.767 57.07)"/><circle opacity=".4" cx="237.907" cy="57.07" r="2.093" transform="rotate(-90 237.907 57.07)"/><circle opacity=".4" cx="2.093" cy="38.93" r="2.093" transform="rotate(-90 2.093 38.93)"/><circle opacity=".4" cx="20.232" cy="38.93" r="2.093" transform="rotate(-90 20.232 38.93)"/><circle opacity=".4" cx="38.372" cy="38.93" r="2.093" transform="rotate(-90 38.372 38.93)"/><circle opacity=".4" cx="56.511" cy="38.93" r="2.093" transform="rotate(-90 56.511 38.93)"/><circle opacity=".4" cx="74.651" cy="38.93" r="2.093" transform="rotate(-90 74.65 38.93)"/><circle opacity=".4" cx="92.79" cy="38.93" r="2.093" transform="rotate(-90 92.79 38.93)"/><circle opacity=".4" cx="110.93" cy="38.93" r="2.093" transform="rotate(-90 110.93 38.93)"/><circle opacity=".4" cx="129.07" cy="38.93" r="2.093" transform="rotate(-90 129.07 38.93)"/><circle opacity=".4" cx="147.209" cy="38.93" r="2.093" transform="rotate(-90 147.209 38.93)"/><circle opacity=".4" cx="165.349" cy="38.93" r="2.093" transform="rotate(-90 165.349 38.93)"/><circle opacity=".4" cx="183.488" cy="38.93" r="2.093" transform="rotate(-90 183.488 38.93)"/><circle opacity=".4" cx="201.628" cy="38.93" r="2.093" transform="rotate(-90 201.628 38.93)"/><circle opacity=".4" cx="219.767" cy="38.93" r="2.093" transform="rotate(-90 219.767 38.93)"/><circle opacity=".4" cx="237.907" cy="38.93" r="2.093" transform="rotate(-90 237.907 38.93)"/><circle opacity=".4" cx="2.093" cy="20.79" r="2.093" transform="rotate(-90 2.093 20.79)"/><circle opacity=".4" cx="20.232" cy="20.79" r="2.093" transform="rotate(-90 20.232 20.79)"/><circle opacity=".4" cx="38.372" cy="20.79" r="2.093" transform="rotate(-90 38.372 20.79)"/><circle opacity=".4" cx="56.511" cy="20.79" r="2.093" transform="rotate(-90 56.511 20.79)"/><circle opacity=".4" cx="74.651" cy="20.79" r="2.093" transform="rotate(-90 74.65 20.79)"/><circle opacity=".4" cx="92.79" cy="20.79" r="2.093" transform="rotate(-90 92.79 20.79)"/><circle opacity=".4" cx="110.93" cy="20.79" r="2.093" transform="rotate(-90 110.93 20.79)"/><circle opacity=".4" cx="129.07" cy="20.79" r="2.093" transform="rotate(-90 129.07 20.79)"/><circle opacity=".4" cx="147.209" cy="20.79" r="2.093" transform="rotate(-90 147.209 20.79)"/><circle opacity=".4" cx="165.349" cy="20.79" r="2.093" transform="rotate(-90 165.349 20.79)"/><circle opacity=".4" cx="183.488" cy="20.79" r="2.093" transform="rotate(-90 183.488 20.79)"/><circle opacity=".4" cx="201.628" cy="20.79" r="2.093" transform="rotate(-90 201.628 20.79)"/><circle opacity=".4" cx="219.767" cy="20.79" r="2.093" transform="rotate(-90 219.767 20.79)"/><circle opacity=".4" cx="237.907" cy="20.79" r="2.093" transform="rotate(-90 237.907 20.79)"/><circle opacity=".4" cx="2.093" cy="2.651" r="2.093" transform="rotate(-90 2.093 2.65)"/><circle opacity=".4" cx="20.232" cy="2.651" r="2.093" transform="rotate(-90 20.232 2.65)"/><circle opacity=".4" cx="38.372" cy="2.651" r="2.093" transform="rotate(-90 38.372 2.65)"/><circle opacity=".4" cx="56.511" cy="2.651" r="2.093" transform="rotate(-90 56.511 2.65)"/><circle opacity=".4" cx="74.651" cy="2.651" r="2.093" transform="rotate(-90 74.65 2.65)"/><circle opacity=".4" cx="92.79" cy="2.651" r="2.093" transform="rotate(-90 92.79 2.65)"/><circle opacity=".4" cx="110.93" cy="2.651" r="2.093" transform="rotate(-90 110.93 2.65)"/><circle opacity=".4" cx="129.07" cy="2.651" r="2.093" transform="rotate(-90 129.07 2.65)"/><circle opacity=".4" cx="147.209" cy="2.651" r="2.093" transform="rotate(-90 147.209 2.65)"/><circle opacity=".4" cx="165.349" cy="2.651" r="2.093" transform="rotate(-90 165.349 2.65)"/><circle opacity=".4" cx="183.488" cy="2.651" r="2.093" transform="rotate(-90 183.488 2.65)"/><circle opacity=".4" cx="201.628" cy="2.651" r="2.093" transform="rotate(-90 201.628 2.65)"/><circle opacity=".4" cx="219.767" cy="2.651" r="2.093" transform="rotate(-90 219.767 2.65)"/><circle opacity=".4" cx="237.907" cy="2.651" r="2.093" transform="rotate(-90 237.907 2.65)"/></g><g opacity=".4" fill="#262B35"><circle opacity=".4" cx="2.093" cy="345.906" r="2.093" transform="rotate(-90 2.093 345.906)"/><circle opacity=".4" cx="20.232" cy="345.906" r="2.093" transform="rotate(-90 20.232 345.906)"/><circle opacity=".4" cx="38.372" cy="345.906" r="2.093" transform="rotate(-90 38.372 345.906)"/><circle opacity=".4" cx="56.511" cy="345.906" r="2.093" transform="rotate(-90 56.51 345.906)"/><circle opacity=".4" cx="74.65" cy="345.906" r="2.093" transform="rotate(-90 74.65 345.906)"/><circle opacity=".4" cx="92.789" cy="345.906" r="2.093" transform="rotate(-90 92.79 345.906)"/><circle opacity=".4" cx="110.929" cy="345.906" r="2.093" transform="rotate(-90 110.929 345.906)"/><circle opacity=".4" cx="129.068" cy="345.906" r="2.093" transform="rotate(-90 129.068 345.906)"/><circle opacity=".4" cx="147.208" cy="345.906" r="2.093" transform="rotate(-90 147.208 345.906)"/><circle opacity=".4" cx="165.347" cy="345.906" r="2.093" transform="rotate(-90 165.347 345.906)"/><circle opacity=".4" cx="183.486" cy="345.906" r="2.093" transform="rotate(-90 183.486 345.906)"/><circle opacity=".4" cx="201.625" cy="345.906" r="2.093" transform="rotate(-90 201.625 345.906)"/><circle opacity=".4" cx="219.764" cy="345.906" r="2.093" transform="rotate(-90 219.764 345.906)"/><circle opacity=".4" cx="237.904" cy="345.906" r="2.093" transform="rotate(-90 237.904 345.906)"/><circle opacity=".4" cx="2.093" cy="327.767" r="2.093" transform="rotate(-90 2.093 327.767)"/><circle opacity=".4" cx="20.232" cy="327.767" r="2.093" transform="rotate(-90 20.232 327.767)"/><circle opacity=".4" cx="38.372" cy="327.767" r="2.093" transform="rotate(-90 38.372 327.767)"/><circle opacity=".4" cx="56.511" cy="327.767" r="2.093" transform="rotate(-90 56.51 327.767)"/><circle opacity=".4" cx="74.65" cy="327.767" r="2.093" transform="rotate(-90 74.65 327.767)"/><circle opacity=".4" cx="92.789" cy="327.767" r="2.093" transform="rotate(-90 92.79 327.767)"/><circle opacity=".4" cx="110.929" cy="327.767" r="2.093" transform="rotate(-90 110.929 327.767)"/><circle opacity=".4" cx="129.068" cy="327.767" r="2.093" transform="rotate(-90 129.068 327.767)"/><circle opacity=".4" cx="147.208" cy="327.767" r="2.093" transform="rotate(-90 147.208 327.767)"/><circle opacity=".4" cx="165.347" cy="327.767" r="2.093" transform="rotate(-90 165.347 327.767)"/><circle opacity=".4" cx="183.486" cy="327.767" r="2.093" transform="rotate(-90 183.486 327.767)"/><circle opacity=".4" cx="201.625" cy="327.767" r="2.093" transform="rotate(-90 201.625 327.767)"/><circle opacity=".4" cx="219.764" cy="327.767" r="2.093" transform="rotate(-90 219.764 327.767)"/><circle opacity=".4" cx="237.904" cy="327.767" r="2.093" transform="rotate(-90 237.904 327.767)"/><circle opacity=".4" cx="2.093" cy="309.628" r="2.093" transform="rotate(-90 2.093 309.628)"/><circle opacity=".4" cx="20.232" cy="309.628" r="2.093" transform="rotate(-90 20.232 309.628)"/><circle opacity=".4" cx="38.372" cy="309.628" r="2.093" transform="rotate(-90 38.372 309.628)"/><circle opacity=".4" cx="56.511" cy="309.628" r="2.093" transform="rotate(-90 56.51 309.628)"/><circle opacity=".4" cx="74.65" cy="309.628" r="2.093" transform="rotate(-90 74.65 309.628)"/><circle opacity=".4" cx="92.789" cy="309.628" r="2.093" transform="rotate(-90 92.79 309.628)"/><circle opacity=".4" cx="110.929" cy="309.628" r="2.093" transform="rotate(-90 110.929 309.628)"/><circle opacity=".4" cx="129.068" cy="309.628" r="2.093" transform="rotate(-90 129.068 309.628)"/><circle opacity=".4" cx="147.208" cy="309.628" r="2.093" transform="rotate(-90 147.208 309.628)"/><circle opacity=".4" cx="165.347" cy="309.628" r="2.093" transform="rotate(-90 165.347 309.628)"/><circle opacity=".4" cx="183.486" cy="309.628" r="2.093" transform="rotate(-90 183.486 309.628)"/><circle opacity=".4" cx="201.625" cy="309.628" r="2.093" transform="rotate(-90 201.625 309.628)"/><circle opacity=".4" cx="219.764" cy="309.628" r="2.093" transform="rotate(-90 219.764 309.628)"/><circle opacity=".4" cx="237.904" cy="309.628" r="2.093" transform="rotate(-90 237.904 309.628)"/><circle opacity=".4" cx="2.093" cy="291.488" r="2.093" transform="rotate(-90 2.093 291.488)"/><circle opacity=".4" cx="20.232" cy="291.488" r="2.093" transform="rotate(-90 20.232 291.488)"/><circle opacity=".4" cx="38.372" cy="291.488" r="2.093" transform="rotate(-90 38.372 291.488)"/><circle opacity=".4" cx="56.511" cy="291.488" r="2.093" transform="rotate(-90 56.51 291.488)"/><circle opacity=".4" cx="74.65" cy="291.488" r="2.093" transform="rotate(-90 74.65 291.488)"/><circle opacity=".4" cx="92.789" cy="291.488" r="2.093" transform="rotate(-90 92.79 291.488)"/><circle opacity=".4" cx="110.929" cy="291.488" r="2.093" transform="rotate(-90 110.929 291.488)"/><circle opacity=".4" cx="129.068" cy="291.488" r="2.093" transform="rotate(-90 129.068 291.488)"/><circle opacity=".4" cx="147.208" cy="291.488" r="2.093" transform="rotate(-90 147.208 291.488)"/><circle opacity=".4" cx="165.347" cy="291.488" r="2.093" transform="rotate(-90 165.347 291.488)"/><circle opacity=".4" cx="183.486" cy="291.488" r="2.093" transform="rotate(-90 183.486 291.488)"/><circle opacity=".4" cx="201.625" cy="291.488" r="2.093" transform="rotate(-90 201.625 291.488)"/><circle opacity=".4" cx="219.764" cy="291.488" r="2.093" transform="rotate(-90 219.764 291.488)"/><circle opacity=".4" cx="237.904" cy="291.488" r="2.093" transform="rotate(-90 237.904 291.488)"/><circle opacity=".4" cx="2.093" cy="273.349" r="2.093" transform="rotate(-90 2.093 273.349)"/><circle opacity=".4" cx="20.232" cy="273.349" r="2.093" transform="rotate(-90 20.232 273.349)"/><circle opacity=".4" cx="38.372" cy="273.349" r="2.093" transform="rotate(-90 38.372 273.349)"/><circle opacity=".4" cx="56.511" cy="273.349" r="2.093" transform="rotate(-90 56.51 273.349)"/><circle opacity=".4" cx="74.65" cy="273.349" r="2.093" transform="rotate(-90 74.65 273.349)"/><circle opacity=".4" cx="92.789" cy="273.349" r="2.093" transform="rotate(-90 92.79 273.349)"/><circle opacity=".4" cx="110.929" cy="273.349" r="2.093" transform="rotate(-90 110.929 273.349)"/><circle opacity=".4" cx="129.068" cy="273.349" r="2.093" transform="rotate(-90 129.068 273.349)"/><circle opacity=".4" cx="147.208" cy="273.349" r="2.093" transform="rotate(-90 147.208 273.349)"/><circle opacity=".4" cx="165.347" cy="273.349" r="2.093" transform="rotate(-90 165.347 273.349)"/><circle opacity=".4" cx="183.486" cy="273.349" r="2.093" transform="rotate(-90 183.486 273.349)"/><circle opacity=".4" cx="201.625" cy="273.349" r="2.093" transform="rotate(-90 201.625 273.349)"/><circle opacity=".4" cx="219.764" cy="273.349" r="2.093" transform="rotate(-90 219.764 273.349)"/><circle opacity=".4" cx="237.904" cy="273.349" r="2.093" transform="rotate(-90 237.904 273.349)"/><circle opacity=".4" cx="2.093" cy="255.21" r="2.093" transform="rotate(-90 2.093 255.21)"/><circle opacity=".4" cx="20.232" cy="255.21" r="2.093" transform="rotate(-90 20.232 255.21)"/><circle opacity=".4" cx="38.372" cy="255.21" r="2.093" transform="rotate(-90 38.372 255.21)"/><circle opacity=".4" cx="56.511" cy="255.21" r="2.093" transform="rotate(-90 56.51 255.21)"/><circle opacity=".4" cx="74.65" cy="255.21" r="2.093" transform="rotate(-90 74.65 255.21)"/><circle opacity=".4" cx="92.789" cy="255.21" r="2.093" transform="rotate(-90 92.79 255.21)"/><circle opacity=".4" cx="110.929" cy="255.21" r="2.093" transform="rotate(-90 110.929 255.21)"/><circle opacity=".4" cx="129.068" cy="255.21" r="2.093" transform="rotate(-90 129.068 255.21)"/><circle opacity=".4" cx="147.208" cy="255.21" r="2.093" transform="rotate(-90 147.208 255.21)"/><circle opacity=".4" cx="165.347" cy="255.21" r="2.093" transform="rotate(-90 165.347 255.21)"/><circle opacity=".4" cx="183.486" cy="255.21" r="2.093" transform="rotate(-90 183.486 255.21)"/><circle opacity=".4" cx="201.625" cy="255.21" r="2.093" transform="rotate(-90 201.625 255.21)"/><circle opacity=".4" cx="219.764" cy="255.21" r="2.093" transform="rotate(-90 219.764 255.21)"/><circle opacity=".4" cx="237.904" cy="255.21" r="2.093" transform="rotate(-90 237.904 255.21)"/><circle opacity=".4" cx="2.093" cy="237.07" r="2.093" transform="rotate(-90 2.093 237.07)"/><circle opacity=".4" cx="20.232" cy="237.07" r="2.093" transform="rotate(-90 20.232 237.07)"/><circle opacity=".4" cx="38.372" cy="237.07" r="2.093" transform="rotate(-90 38.372 237.07)"/><circle opacity=".4" cx="56.511" cy="237.07" r="2.093" transform="rotate(-90 56.51 237.07)"/><circle opacity=".4" cx="74.65" cy="237.07" r="2.093" transform="rotate(-90 74.65 237.07)"/><circle opacity=".4" cx="92.789" cy="237.07" r="2.093" transform="rotate(-90 92.79 237.07)"/><circle opacity=".4" cx="110.929" cy="237.07" r="2.093" transform="rotate(-90 110.929 237.07)"/><circle opacity=".4" cx="129.068" cy="237.07" r="2.093" transform="rotate(-90 129.068 237.07)"/><circle opacity=".4" cx="147.208" cy="237.07" r="2.093" transform="rotate(-90 147.208 237.07)"/><circle opacity=".4" cx="165.347" cy="237.07" r="2.093" transform="rotate(-90 165.347 237.07)"/><circle opacity=".4" cx="183.486" cy="237.07" r="2.093" transform="rotate(-90 183.486 237.07)"/><circle opacity=".4" cx="201.625" cy="237.07" r="2.093" transform="rotate(-90 201.625 237.07)"/><circle opacity=".4" cx="219.764" cy="237.07" r="2.093" transform="rotate(-90 219.764 237.07)"/><circle opacity=".4" cx="237.904" cy="237.07" r="2.093" transform="rotate(-90 237.904 237.07)"/><circle opacity=".4" cx="2.093" cy="218.931" r="2.093" transform="rotate(-90 2.093 218.931)"/><circle opacity=".4" cx="20.232" cy="218.931" r="2.093" transform="rotate(-90 20.232 218.931)"/><circle opacity=".4" cx="38.372" cy="218.931" r="2.093" transform="rotate(-90 38.372 218.931)"/><circle opacity=".4" cx="56.511" cy="218.931" r="2.093" transform="rotate(-90 56.51 218.931)"/><circle opacity=".4" cx="74.65" cy="218.931" r="2.093" transform="rotate(-90 74.65 218.931)"/><circle opacity=".4" cx="92.789" cy="218.931" r="2.093" transform="rotate(-90 92.79 218.931)"/><circle opacity=".4" cx="110.929" cy="218.931" r="2.093" transform="rotate(-90 110.929 218.931)"/><circle opacity=".4" cx="129.068" cy="218.931" r="2.093" transform="rotate(-90 129.068 218.931)"/><circle opacity=".4" cx="147.208" cy="218.931" r="2.093" transform="rotate(-90 147.208 218.931)"/><circle opacity=".4" cx="165.347" cy="218.931" r="2.093" transform="rotate(-90 165.347 218.931)"/><circle opacity=".4" cx="183.486" cy="218.931" r="2.093" transform="rotate(-90 183.486 218.931)"/><circle opacity=".4" cx="201.625" cy="218.931" r="2.093" transform="rotate(-90 201.625 218.931)"/><circle opacity=".4" cx="219.764" cy="218.931" r="2.093" transform="rotate(-90 219.764 218.931)"/><circle opacity=".4" cx="237.904" cy="218.931" r="2.093" transform="rotate(-90 237.904 218.931)"/><circle opacity=".4" cx="2.093" cy="200.792" r="2.093" transform="rotate(-90 2.093 200.792)"/><circle opacity=".4" cx="20.232" cy="200.792" r="2.093" transform="rotate(-90 20.232 200.792)"/><circle opacity=".4" cx="38.372" cy="200.792" r="2.093" transform="rotate(-90 38.372 200.792)"/><circle opacity=".4" cx="56.511" cy="200.792" r="2.093" transform="rotate(-90 56.51 200.792)"/><circle opacity=".4" cx="74.65" cy="200.792" r="2.093" transform="rotate(-90 74.65 200.792)"/><circle opacity=".4" cx="92.789" cy="200.792" r="2.093" transform="rotate(-90 92.79 200.792)"/><circle opacity=".4" cx="110.929" cy="200.792" r="2.093" transform="rotate(-90 110.929 200.792)"/><circle opacity=".4" cx="129.068" cy="200.792" r="2.093" transform="rotate(-90 129.068 200.792)"/><circle opacity=".4" cx="147.208" cy="200.792" r="2.093" transform="rotate(-90 147.208 200.792)"/><circle opacity=".4" cx="165.347" cy="200.792" r="2.093" transform="rotate(-90 165.347 200.792)"/><circle opacity=".4" cx="183.486" cy="200.792" r="2.093" transform="rotate(-90 183.486 200.792)"/><circle opacity=".4" cx="201.625" cy="200.792" r="2.093" transform="rotate(-90 201.625 200.792)"/><circle opacity=".4" cx="219.764" cy="200.792" r="2.093" transform="rotate(-90 219.764 200.792)"/><circle opacity=".4" cx="237.904" cy="200.792" r="2.093" transform="rotate(-90 237.904 200.792)"/><circle opacity=".4" cx="2.093" cy="182.652" r="2.093" transform="rotate(-90 2.093 182.652)"/><circle opacity=".4" cx="20.232" cy="182.652" r="2.093" transform="rotate(-90 20.232 182.652)"/><circle opacity=".4" cx="38.372" cy="182.652" r="2.093" transform="rotate(-90 38.372 182.652)"/><circle opacity=".4" cx="56.511" cy="182.652" r="2.093" transform="rotate(-90 56.51 182.652)"/><circle opacity=".4" cx="74.65" cy="182.652" r="2.093" transform="rotate(-90 74.65 182.652)"/><circle opacity=".4" cx="92.789" cy="182.652" r="2.093" transform="rotate(-90 92.79 182.652)"/><circle opacity=".4" cx="110.929" cy="182.652" r="2.093" transform="rotate(-90 110.929 182.652)"/><circle opacity=".4" cx="129.068" cy="182.652" r="2.093" transform="rotate(-90 129.068 182.652)"/><circle opacity=".4" cx="147.208" cy="182.652" r="2.093" transform="rotate(-90 147.208 182.652)"/><circle opacity=".4" cx="165.347" cy="182.652" r="2.093" transform="rotate(-90 165.347 182.652)"/><circle opacity=".4" cx="183.486" cy="182.652" r="2.093" transform="rotate(-90 183.486 182.652)"/><circle opacity=".4" cx="201.625" cy="182.652" r="2.093" transform="rotate(-90 201.625 182.652)"/><circle opacity=".4" cx="219.764" cy="182.652" r="2.093" transform="rotate(-90 219.764 182.652)"/><circle opacity=".4" cx="237.904" cy="182.652" r="2.093" transform="rotate(-90 237.904 182.652)"/></g></svg>