<svg width="241" height="168" fill="none" xmlns="http://www.w3.org/2000/svg"><path opacity=".4" fill-rule="evenodd" clip-rule="evenodd" d="M4.467 165.626a2.093 2.093 0 10-4.186 0 2.093 2.093 0 004.186 0zm18.14 0a2.093 2.093 0 10-4.187 0 2.093 2.093 0 004.186 0zm16.046-2.093a2.093 2.093 0 110 4.186 2.093 2.093 0 010-4.186zm20.232 2.093a2.093 2.093 0 10-4.186 0 2.093 2.093 0 004.186 0zm16.047-2.093a2.093 2.093 0 110 4.186 2.093 2.093 0 010-4.186zm20.232 2.093a2.093 2.093 0 10-4.186 0 2.093 2.093 0 004.186 0zm16.047-2.093a2.093 2.093 0 110 4.186 2.093 2.093 0 010-4.186zm20.231 2.093a2.093 2.093 0 10-4.186 0 2.093 2.093 0 004.186 0zm16.047-2.093a2.093 2.093 0 110 4.186 2.093 2.093 0 010-4.186zm20.232 2.093a2.093 2.093 0 10-4.186 0 2.093 2.093 0 004.186 0zm16.047-2.093a2.093 2.093 0 110 4.186 2.093 2.093 0 010-4.186zm20.231 2.093a2.093 2.093 0 10-4.186 0 2.093 2.093 0 004.186 0zm16.047-2.093a2.093 2.093 0 110 4.186 2.093 2.093 0 010-4.186zm20.233 2.093a2.093 2.093 0 10-4.186 0 2.093 2.093 0 004.186 0zM2.374 145.393a2.093 2.093 0 110 4.186 2.093 2.093 0 010-4.186zm20.232 2.093a2.093 2.093 0 10-4.186 0 2.093 2.093 0 004.186 0zm16.047-2.093a2.093 2.093 0 110 4.186 2.093 2.093 0 010-4.186zm20.232 2.093a2.093 2.093 0 10-4.186 0 2.093 2.093 0 004.186 0zm16.047-2.093a2.093 2.093 0 110 4.186 2.093 2.093 0 010-4.186zm20.232 2.093a2.093 2.093 0 10-4.186 0 2.093 2.093 0 004.186 0zm16.047-2.093a2.093 2.093 0 110 4.186 2.093 2.093 0 010-4.186zm20.231 2.093a2.093 2.093 0 10-4.186 0 2.093 2.093 0 004.186 0zm16.047-2.093a2.093 2.093 0 110 4.186 2.093 2.093 0 010-4.186zm20.232 2.093a2.093 2.093 0 10-4.186 0 2.093 2.093 0 004.186 0zm16.047-2.093a2.093 2.093 0 110 4.186 2.093 2.093 0 010-4.186zm20.231 2.093a2.093 2.093 0 10-4.186 0 2.093 2.093 0 004.186 0zm16.047-2.093a2.093 2.093 0 110 4.186 2.093 2.093 0 010-4.186zm20.233 2.093a2.093 2.093 0 10-4.186 0 2.093 2.093 0 004.186 0zM2.374 127.254a2.093 2.093 0 110 4.186 2.093 2.093 0 010-4.186zm20.232 2.093a2.093 2.093 0 10-4.186 0 2.093 2.093 0 004.186 0zm16.047-2.093a2.093 2.093 0 110 4.186 2.093 2.093 0 010-4.186zm20.232 2.093a2.093 2.093 0 10-4.186 0 2.093 2.093 0 004.186 0zm16.047-2.093a2.093 2.093 0 110 4.186 2.093 2.093 0 010-4.186zm20.232 2.093a2.093 2.093 0 10-4.186 0 2.093 2.093 0 004.186 0zm16.047-2.093a2.093 2.093 0 110 4.186 2.093 2.093 0 010-4.186zm20.231 2.093a2.093 2.093 0 10-4.186 0 2.093 2.093 0 004.186 0zm16.047-2.093a2.093 2.093 0 110 4.186 2.093 2.093 0 010-4.186zm20.232 2.093a2.093 2.093 0 10-4.186 0 2.093 2.093 0 004.186 0zm16.047-2.093a2.093 2.093 0 110 4.186 2.093 2.093 0 010-4.186zm20.231 2.093a2.093 2.093 0 10-4.186 0 2.093 2.093 0 004.186 0zm16.047-2.093a2.093 2.093 0 110 4.186 2.093 2.093 0 010-4.186zm20.233 2.093a2.093 2.093 0 10-4.186 0 2.093 2.093 0 004.186 0zM2.374 109.115a2.093 2.093 0 110 4.186 2.093 2.093 0 010-4.186zm20.232 2.093a2.093 2.093 0 10-4.186 0 2.093 2.093 0 004.186 0zm16.047-2.093a2.093 2.093 0 110 4.186 2.093 2.093 0 010-4.186zm20.232 2.093a2.093 2.093 0 10-4.186 0 2.093 2.093 0 004.186 0zm16.047-2.093a2.093 2.093 0 110 4.186 2.093 2.093 0 010-4.186zm20.232 2.093a2.093 2.093 0 10-4.186 0 2.093 2.093 0 004.186 0zm16.047-2.093a2.093 2.093 0 110 4.186 2.093 2.093 0 010-4.186zm20.231 2.093a2.093 2.093 0 10-4.186 0 2.093 2.093 0 004.186 0zm16.047-2.093a2.093 2.093 0 110 4.186 2.093 2.093 0 010-4.186zm20.232 2.093a2.093 2.093 0 10-4.186 0 2.093 2.093 0 004.186 0zm16.047-2.093a2.093 2.093 0 110 4.186 2.093 2.093 0 010-4.186zm20.231 2.093a2.093 2.093 0 10-4.186 0 2.093 2.093 0 004.186 0zm16.047-2.093a2.093 2.093 0 110 4.186 2.093 2.093 0 010-4.186zm20.233 2.093a2.093 2.093 0 10-4.186 0 2.093 2.093 0 004.186 0zM2.374 90.975a2.093 2.093 0 110 4.186 2.093 2.093 0 010-4.186zm20.232 2.093a2.093 2.093 0 10-4.186 0 2.093 2.093 0 004.186 0zm16.047-2.093a2.093 2.093 0 110 4.186 2.093 2.093 0 010-4.186zm20.232 2.093a2.093 2.093 0 10-4.186 0 2.093 2.093 0 004.186 0zm16.047-2.093a2.093 2.093 0 110 4.186 2.093 2.093 0 010-4.186zm20.232 2.093a2.093 2.093 0 10-4.186 0 2.093 2.093 0 004.186 0zm16.047-2.093a2.093 2.093 0 110 4.186 2.093 2.093 0 010-4.186zm20.231 2.093a2.093 2.093 0 10-4.186 0 2.093 2.093 0 004.186 0zm16.047-2.093a2.093 2.093 0 110 4.186 2.093 2.093 0 010-4.186zm20.232 2.093a2.093 2.093 0 10-4.186 0 2.093 2.093 0 004.186 0zm16.047-2.093a2.093 2.093 0 110 4.186 2.093 2.093 0 010-4.186zm20.231 2.093a2.093 2.093 0 10-4.186 0 2.093 2.093 0 004.186 0zm16.047-2.093a2.093 2.093 0 110 4.186 2.093 2.093 0 010-4.186zm20.233 2.093a2.093 2.093 0 10-4.186 0 2.093 2.093 0 004.186 0zM2.374 72.836a2.093 2.093 0 110 4.186 2.093 2.093 0 010-4.186zm20.232 2.093a2.093 2.093 0 10-4.186 0 2.093 2.093 0 004.186 0zm16.047-2.093a2.093 2.093 0 110 4.186 2.093 2.093 0 010-4.186zm20.232 2.093a2.093 2.093 0 10-4.186 0 2.093 2.093 0 004.186 0zm16.047-2.093a2.093 2.093 0 110 4.186 2.093 2.093 0 010-4.186zm20.232 2.093a2.093 2.093 0 10-4.186 0 2.093 2.093 0 004.186 0zm16.047-2.093a2.093 2.093 0 110 4.186 2.093 2.093 0 010-4.186zm20.231 2.093a2.093 2.093 0 10-4.186 0 2.093 2.093 0 004.186 0zm16.047-2.093a2.093 2.093 0 110 4.186 2.093 2.093 0 010-4.186zm20.232 2.093a2.093 2.093 0 10-4.186 0 2.093 2.093 0 004.186 0zm16.047-2.093a2.093 2.093 0 110 4.186 2.093 2.093 0 010-4.186zm20.231 2.093a2.093 2.093 0 10-4.186 0 2.093 2.093 0 004.186 0zm16.047-2.093a2.093 2.093 0 110 4.186 2.093 2.093 0 010-4.186zm20.233 2.093a2.093 2.093 0 10-4.186 0 2.093 2.093 0 004.186 0zM2.374 54.697a2.093 2.093 0 110 4.186 2.093 2.093 0 010-4.186zm20.232 2.093a2.093 2.093 0 10-4.186 0 2.093 2.093 0 004.186 0zm16.047-2.093a2.093 2.093 0 110 4.186 2.093 2.093 0 010-4.186zm20.232 2.093a2.093 2.093 0 10-4.186 0 2.093 2.093 0 004.186 0zm16.047-2.093a2.093 2.093 0 110 4.186 2.093 2.093 0 010-4.186zm20.232 2.093a2.093 2.093 0 10-4.186 0 2.093 2.093 0 004.186 0zm16.047-2.093a2.093 2.093 0 110 4.186 2.093 2.093 0 010-4.186zm20.231 2.093a2.093 2.093 0 10-4.186 0 2.093 2.093 0 004.186 0zm16.047-2.093a2.093 2.093 0 110 4.186 2.093 2.093 0 010-4.186zm20.232 2.093a2.093 2.093 0 10-4.186 0 2.093 2.093 0 004.186 0zm16.047-2.093a2.093 2.093 0 110 4.186 2.093 2.093 0 010-4.186zm20.231 2.093a2.093 2.093 0 10-4.186 0 2.093 2.093 0 004.186 0zm16.047-2.093a2.093 2.093 0 110 4.186 2.093 2.093 0 010-4.186zm20.233 2.093a2.093 2.093 0 10-4.186 0 2.093 2.093 0 004.186 0zM2.374 36.558a2.093 2.093 0 110 4.186 2.093 2.093 0 010-4.186zm20.232 2.093a2.093 2.093 0 10-4.186 0 2.093 2.093 0 004.186 0zm16.047-2.093a2.093 2.093 0 110 4.186 2.093 2.093 0 010-4.186zm20.232 2.093a2.093 2.093 0 10-4.186 0 2.093 2.093 0 004.186 0zm16.047-2.093a2.093 2.093 0 110 4.186 2.093 2.093 0 010-4.186zm20.232 2.093a2.093 2.093 0 10-4.186 0 2.093 2.093 0 004.186 0zm16.047-2.093a2.093 2.093 0 110 4.186 2.093 2.093 0 010-4.186zm20.231 2.093a2.093 2.093 0 10-4.186 0 2.093 2.093 0 004.186 0zm16.047-2.093a2.093 2.093 0 110 4.186 2.093 2.093 0 010-4.186zm20.232 2.093a2.093 2.093 0 10-4.186 0 2.093 2.093 0 004.186 0zm16.047-2.093a2.093 2.093 0 110 4.186 2.093 2.093 0 010-4.186zm20.231 2.093a2.093 2.093 0 10-4.186 0 2.093 2.093 0 004.186 0zm16.047-2.093a2.093 2.093 0 110 4.186 2.093 2.093 0 010-4.186zm20.233 2.093a2.093 2.093 0 10-4.186 0 2.093 2.093 0 004.186 0zM2.374 18.418a2.093 2.093 0 110 4.186 2.093 2.093 0 010-4.186zm20.232 2.093a2.093 2.093 0 10-4.186 0 2.093 2.093 0 004.186 0zm16.047-2.093a2.093 2.093 0 110 4.186 2.093 2.093 0 010-4.186zm20.232 2.093a2.093 2.093 0 10-4.186 0 2.093 2.093 0 004.186 0zm16.047-2.093a2.093 2.093 0 110 4.186 2.093 2.093 0 010-4.186zm20.232 2.093a2.093 2.093 0 10-4.186 0 2.093 2.093 0 004.186 0zm16.047-2.093a2.093 2.093 0 110 4.186 2.093 2.093 0 010-4.186zm20.231 2.093a2.093 2.093 0 10-4.186 0 2.093 2.093 0 004.186 0zm16.047-2.093a2.093 2.093 0 110 4.186 2.093 2.093 0 010-4.186zm20.232 2.093a2.093 2.093 0 10-4.186 0 2.093 2.093 0 004.186 0zm16.047-2.093a2.093 2.093 0 110 4.186 2.093 2.093 0 010-4.186zm20.231 2.093a2.093 2.093 0 10-4.186 0 2.093 2.093 0 004.186 0zm16.047-2.093a2.093 2.093 0 110 4.186 2.093 2.093 0 010-4.186zm20.233 2.093a2.093 2.093 0 10-4.186 0 2.093 2.093 0 004.186 0zM2.374.279a2.093 2.093 0 110 4.186 2.093 2.093 0 010-4.186zm20.232 2.093a2.093 2.093 0 10-4.186 0 2.093 2.093 0 004.186 0zM38.653.279a2.093 2.093 0 110 4.186 2.093 2.093 0 010-4.186zm20.232 2.093a2.093 2.093 0 10-4.186 0 2.093 2.093 0 004.186 0zM74.932.279a2.093 2.093 0 110 4.186 2.093 2.093 0 010-4.186zm20.232 2.093a2.093 2.093 0 10-4.186 0 2.093 2.093 0 004.186 0zM111.211.279a2.093 2.093 0 110 4.186 2.093 2.093 0 010-4.186zm20.231 2.093a2.093 2.093 0 10-4.186 0 2.093 2.093 0 004.186 0zM147.489.279a2.093 2.093 0 110 4.186 2.093 2.093 0 010-4.186zm20.232 2.093a2.093 2.093 0 10-4.186 0 2.093 2.093 0 004.186 0zM183.768.279a2.093 2.093 0 110 4.186 2.093 2.093 0 010-4.186zm20.231 2.093a2.093 2.093 0 10-4.186 0 2.093 2.093 0 004.186 0zM220.046.279a2.093 2.093 0 110 4.186 2.093 2.093 0 010-4.186zm20.233 2.093a2.093 2.093 0 10-4.186 0 2.093 2.093 0 004.186 0z" fill="#fff"/></svg>